# xmcd
# 
# Track frame offsets:
#     150
#     8893
#     22522
#     36164
#     51534
#     65252
#     90542
#     107760
#     127553
#     141509
#     162342
# 
# Disc length: 2425
# 
# Revision: 0
# Processed by: cddbd v1.5.2PL0 Copyright (c) Steve Scherf et al.
# Submitted via: fre:ac v1.0.17
# 
DISCID=8509770b
DTITLE=Blues Brothers - Briefcase Full of Blues
DYEAR=0
DGENRE=Blues
TTITLE0=Intro
TTITLE1=Hey Bartender
TTITLE2=Messin' with the Kid
TTITLE3=Almost
TTITLE4=Rubber Biscuit
TTITLE5=Shotgun Blues
TTITLE6=Groove Me
TTITLE7=I Don't Know
TTITLE8=Soul Man
TTITLE9=B Movie Boxcar Blues
TTITLE10=Flip,Flop and Fly
EXTD=Recorded from LP
EXTT0=
EXTT1=
EXTT2=
EXTT3=
EXTT4=
EXTT5=
EXTT6=
EXTT7=
EXTT8=
EXTT9=
EXTT10=
PLAYORDER=
